<?xml version="1.0" standalone="no"?>
<!DOCTYPE svg PUBLIC "-//W3C//DTD SVG 20010904//EN"
 "http://www.w3.org/TR/2001/REC-SVG-20010904/DTD/svg10.dtd">
<svg version="1.0" xmlns="http://www.w3.org/2000/svg"
 width="960.000000pt" height="960.000000pt" viewBox="0 0 960.000000 960.000000"
 preserveAspectRatio="xMidYMid meet">
<metadata>
Created by potrace 1.14, written by Peter Selinger 2001-2017
</metadata>
<g transform="translate(0.000000,960.000000) scale(0.100000,-0.100000)"
fill="#000000" stroke="none">
<path d="M6657 9594 c-1 -1 -24 -5 -50 -8 -81 -11 -148 -25 -247 -52 -52 -15
-99 -27 -105 -29 -11 -2 -59 -21 -90 -34 -11 -5 -36 -15 -55 -22 -40 -14 -184
-84 -247 -120 -166 -94 -300 -197 -444 -339 -99 -98 -139 -142 -233 -260 -46
-58 -172 -259 -183 -292 -3 -10 -9 -18 -14 -18 -5 0 -9 -5 -9 -11 0 -5 -13
-37 -29 -70 -17 -32 -27 -59 -24 -59 3 0 0 -6 -6 -14 -11 -13 -70 -165 -76
-196 -2 -8 -9 -35 -16 -60 -17 -62 -16 -59 -28 -120 -6 -30 -13 -68 -16 -85
-19 -93 -13 -391 8 -412 11 -10 332 -3 332 7 0 1 9 3 20 4 11 2 34 6 50 10 17
3 39 8 50 11 50 10 135 35 180 53 68 26 84 31 90 31 27 -1 357 195 405 241 9
8 38 33 66 55 98 80 235 224 347 367 18 22 98 141 124 183 36 59 63 109 63
116 0 5 5 9 10 9 6 0 10 6 10 13 0 7 13 37 28 67 16 30 29 58 30 63 1 4 10 27
21 51 10 24 22 55 26 68 3 12 10 32 15 43 8 18 49 160 55 195 2 8 4 15 5 15 1
0 3 9 4 20 2 11 7 40 11 65 5 25 10 54 11 65 1 11 6 47 10 80 8 62 9 315 1
350 -3 16 -12 20 -51 20 -26 1 -48 0 -49 -1z"/>
<path d="M6588 7295 c-2 -2 -48 -6 -103 -9 -55 -3 -111 -8 -125 -10 -14 -2
-50 -7 -80 -11 -30 -4 -75 -11 -100 -16 -25 -5 -58 -12 -75 -15 -16 -3 -52
-12 -78 -19 -27 -8 -52 -14 -55 -13 -4 1 -14 -1 -22 -4 -8 -3 -87 -29 -175
-58 -88 -29 -176 -59 -195 -68 -19 -8 -41 -14 -47 -13 -7 1 -13 -2 -13 -7 0
-5 -6 -9 -12 -9 -7 0 -70 -23 -141 -52 -257 -103 -429 -152 -513 -145 -74 6
-132 14 -169 24 -22 6 -51 13 -65 16 -13 3 -30 10 -37 16 -7 6 -13 8 -13 5 0
-3 -44 10 -97 29 -54 20 -102 37 -108 38 -15 4 -48 17 -70 27 -11 5 -72 27
-135 49 -63 23 -124 45 -135 50 -92 39 -352 106 -520 135 -22 4 -49 9 -60 11
-74 13 -399 25 -419 15 -6 -2 -30 -6 -55 -7 -63 -3 -120 -12 -231 -36 -52 -11
-102 -22 -110 -23 -8 -2 -15 -4 -15 -5 0 -1 -7 -3 -15 -5 -8 -1 -49 -15 -90
-30 -41 -14 -84 -28 -94 -30 -11 -3 -24 -9 -30 -15 -5 -5 -18 -10 -28 -10 -10
0 -18 -5 -18 -12 0 -6 -3 -9 -6 -6 -3 3 -35 -9 -72 -27 -37 -18 -71 -33 -76
-33 -5 0 -12 -4 -15 -9 -3 -4 -26 -19 -51 -32 -25 -14 -48 -29 -52 -35 -4 -6
-8 -8 -8 -4 0 8 -172 -107 -206 -137 -6 -5 -31 -26 -55 -45 -71 -57 -280 -269
-349 -354 -107 -133 -226 -319 -304 -479 -66 -133 -139 -301 -152 -347 -2 -8
-18 -60 -35 -115 -30 -97 -41 -135 -63 -232 -2 -10 -7 -29 -10 -43 -6 -25 -14
-66 -20 -105 -2 -11 -7 -35 -10 -52 -9 -49 -14 -82 -21 -138 -3 -27 -8 -66
-10 -85 -20 -140 -27 -602 -12 -780 10 -127 24 -250 32 -290 2 -14 7 -43 10
-65 7 -45 9 -61 20 -125 4 -25 9 -54 11 -65 1 -11 3 -20 4 -20 1 0 3 -9 5 -20
2 -11 7 -36 11 -55 4 -19 8 -42 10 -50 1 -8 5 -26 9 -40 3 -14 8 -36 11 -50 3
-14 7 -33 10 -42 3 -9 7 -25 9 -35 2 -10 9 -36 15 -58 6 -22 13 -49 15 -60 3
-11 14 -51 26 -90 11 -38 22 -74 23 -80 4 -12 10 -30 25 -75 7 -19 14 -42 16
-51 2 -9 11 -39 20 -65 9 -27 18 -53 19 -59 2 -5 6 -17 9 -25 4 -8 22 -58 41
-110 66 -182 185 -463 198 -468 4 -2 8 -14 8 -27 0 -13 3 -25 8 -27 4 -2 42
-73 84 -158 90 -179 141 -273 209 -383 27 -43 49 -80 49 -83 0 -2 29 -47 65
-100 36 -53 65 -99 65 -101 0 -2 5 -9 10 -16 6 -7 57 -75 114 -152 58 -77 116
-153 131 -170 15 -16 36 -43 48 -59 64 -84 353 -363 467 -449 71 -54 90 -67
98 -67 6 0 12 -3 14 -8 7 -17 154 -99 258 -145 42 -19 146 -54 181 -61 13 -3
35 -8 49 -11 44 -12 233 -14 285 -4 28 6 61 12 75 15 14 3 43 10 65 16 22 5
47 12 55 14 8 2 56 17 105 34 50 17 97 33 105 35 8 2 36 12 63 24 26 11 48 20
50 19 4 -2 51 13 72 22 11 5 63 23 115 40 52 17 102 34 110 37 8 3 24 8 35 10
29 6 38 9 55 16 8 4 60 18 115 31 92 23 140 33 250 52 90 17 496 7 527 -12 5
-3 21 -7 36 -10 33 -5 111 -24 132 -31 8 -4 22 -7 31 -9 9 -2 63 -19 120 -39
57 -19 111 -37 119 -40 8 -2 78 -27 155 -56 77 -28 145 -52 150 -53 6 -2 17
-6 25 -9 17 -7 108 -34 160 -48 32 -9 56 -14 117 -24 13 -2 26 -6 30 -8 16
-10 152 -20 258 -20 111 1 268 29 326 59 15 7 29 10 33 7 3 -4 6 -2 6 4 0 5 6
10 13 10 17 0 140 63 212 108 150 95 391 312 520 469 22 26 45 53 51 60 23 25
171 223 189 254 11 17 23 32 27 32 4 0 8 7 8 15 0 8 5 15 10 15 6 0 10 7 10
15 0 8 5 15 10 15 6 0 10 4 10 9 0 4 22 42 50 83 61 94 200 332 267 458 28 52
56 106 64 120 7 14 14 27 15 30 0 3 35 75 76 160 41 85 87 184 103 220 15 36
36 83 46 105 21 48 83 198 85 205 0 3 6 17 12 31 21 52 19 60 -23 78 -22 9
-65 30 -95 46 -30 16 -58 28 -61 27 -4 0 -15 8 -24 18 -10 11 -22 20 -28 20
-14 0 -163 100 -262 177 -84 65 -222 195 -306 288 -46 51 -170 215 -177 235
-3 8 -9 17 -12 20 -11 8 -83 137 -119 215 -38 81 -67 152 -87 215 -8 25 -18
59 -24 75 -15 47 -48 195 -54 245 -3 25 -8 55 -10 66 -8 38 -19 236 -18 309 2
116 14 256 27 325 3 14 9 50 15 80 8 44 33 141 64 245 2 6 8 23 14 38 7 16 12
31 12 34 0 19 133 293 143 293 4 0 7 5 7 11 0 9 105 175 120 189 3 3 23 28 45
55 51 65 104 123 186 204 84 83 101 98 207 177 48 36 94 71 102 77 8 7 20 14
25 15 6 2 29 16 53 31 40 26 42 30 28 44 -9 8 -16 20 -16 24 0 5 -8 18 -17 29
-10 11 -34 40 -53 64 -102 133 -260 283 -410 389 -149 106 -260 167 -470 259
-86 38 -336 111 -435 127 -37 7 -100 16 -130 20 -16 2 -48 7 -70 10 -22 3 -98
8 -170 11 -71 3 -138 6 -147 8 -9 2 -18 3 -20 1z"/>
</g>
</svg>
